<mxfile host="app.diagrams.net" modified="2024-03-06T12:47:54.750Z" agent="Mozilla/5.0 (Windows NT 10.0; Win64; x64) AppleWebKit/537.36 (KHTML, like Gecko) Chrome/122.0.0.0 Safari/537.36" etag="Znxgsxy9nuZ5I2DOM3Jj" version="23.1.5" type="device">
  <diagram name="Page-1" id="-lN6_4fPzd3v2eFzjG6c">
    <mxGraphModel dx="2390" dy="1307" grid="1" gridSize="10" guides="1" tooltips="1" connect="1" arrows="1" fold="1" page="1" pageScale="1" pageWidth="850" pageHeight="1100" math="0" shadow="0">
      <root>
        <mxCell id="0" />
        <mxCell id="1" parent="0" />
        <mxCell id="jNqRo3JuHXkXEJUHgoIS-4" value="" style="edgeStyle=orthogonalEdgeStyle;rounded=0;orthogonalLoop=1;jettySize=auto;html=1;" edge="1" parent="1" source="jNqRo3JuHXkXEJUHgoIS-1" target="jNqRo3JuHXkXEJUHgoIS-3">
          <mxGeometry relative="1" as="geometry" />
        </mxCell>
        <mxCell id="jNqRo3JuHXkXEJUHgoIS-1" value="start" style="ellipse;whiteSpace=wrap;html=1;" vertex="1" parent="1">
          <mxGeometry x="320" y="40" width="170" height="110" as="geometry" />
        </mxCell>
        <mxCell id="jNqRo3JuHXkXEJUHgoIS-2" value="end" style="ellipse;whiteSpace=wrap;html=1;" vertex="1" parent="1">
          <mxGeometry x="320" y="620" width="170" height="110" as="geometry" />
        </mxCell>
        <mxCell id="jNqRo3JuHXkXEJUHgoIS-6" value="" style="edgeStyle=orthogonalEdgeStyle;rounded=0;orthogonalLoop=1;jettySize=auto;html=1;" edge="1" parent="1" source="jNqRo3JuHXkXEJUHgoIS-3" target="jNqRo3JuHXkXEJUHgoIS-5">
          <mxGeometry relative="1" as="geometry" />
        </mxCell>
        <mxCell id="jNqRo3JuHXkXEJUHgoIS-3" value="makaron, yag, su, &lt;br&gt;qazan, duz" style="shape=parallelogram;perimeter=parallelogramPerimeter;whiteSpace=wrap;html=1;fixedSize=1;" vertex="1" parent="1">
          <mxGeometry x="315" y="190" width="180" height="90" as="geometry" />
        </mxCell>
        <mxCell id="jNqRo3JuHXkXEJUHgoIS-9" value="true" style="edgeStyle=orthogonalEdgeStyle;rounded=0;orthogonalLoop=1;jettySize=auto;html=1;" edge="1" parent="1" source="jNqRo3JuHXkXEJUHgoIS-5" target="jNqRo3JuHXkXEJUHgoIS-8">
          <mxGeometry relative="1" as="geometry" />
        </mxCell>
        <mxCell id="jNqRo3JuHXkXEJUHgoIS-5" value="makaron var?" style="rhombus;whiteSpace=wrap;html=1;" vertex="1" parent="1">
          <mxGeometry x="330" y="330" width="150" height="110" as="geometry" />
        </mxCell>
        <mxCell id="jNqRo3JuHXkXEJUHgoIS-12" value="true" style="edgeStyle=orthogonalEdgeStyle;rounded=0;orthogonalLoop=1;jettySize=auto;html=1;" edge="1" parent="1" source="jNqRo3JuHXkXEJUHgoIS-8" target="jNqRo3JuHXkXEJUHgoIS-11">
          <mxGeometry relative="1" as="geometry" />
        </mxCell>
        <mxCell id="jNqRo3JuHXkXEJUHgoIS-13" value="false" style="edgeStyle=orthogonalEdgeStyle;rounded=0;orthogonalLoop=1;jettySize=auto;html=1;entryX=1;entryY=0.5;entryDx=0;entryDy=0;" edge="1" parent="1" source="jNqRo3JuHXkXEJUHgoIS-8" target="jNqRo3JuHXkXEJUHgoIS-2">
          <mxGeometry relative="1" as="geometry">
            <Array as="points">
              <mxPoint x="635" y="675" />
            </Array>
          </mxGeometry>
        </mxCell>
        <mxCell id="jNqRo3JuHXkXEJUHgoIS-8" value="yag var?" style="rhombus;whiteSpace=wrap;html=1;" vertex="1" parent="1">
          <mxGeometry x="595" y="345" width="80" height="80" as="geometry" />
        </mxCell>
        <mxCell id="jNqRo3JuHXkXEJUHgoIS-10" value="false" style="edgeStyle=orthogonalEdgeStyle;rounded=0;orthogonalLoop=1;jettySize=auto;html=1;entryX=0.001;entryY=0.424;entryDx=0;entryDy=0;entryPerimeter=0;exitX=0;exitY=0.5;exitDx=0;exitDy=0;" edge="1" parent="1" source="jNqRo3JuHXkXEJUHgoIS-5" target="jNqRo3JuHXkXEJUHgoIS-2">
          <mxGeometry relative="1" as="geometry">
            <Array as="points">
              <mxPoint x="300" y="385" />
              <mxPoint x="300" y="667" />
            </Array>
          </mxGeometry>
        </mxCell>
        <mxCell id="jNqRo3JuHXkXEJUHgoIS-14" style="edgeStyle=orthogonalEdgeStyle;rounded=0;orthogonalLoop=1;jettySize=auto;html=1;" edge="1" parent="1" source="jNqRo3JuHXkXEJUHgoIS-16" target="jNqRo3JuHXkXEJUHgoIS-15">
          <mxGeometry relative="1" as="geometry">
            <mxPoint x="1000" y="385" as="targetPoint" />
          </mxGeometry>
        </mxCell>
        <mxCell id="jNqRo3JuHXkXEJUHgoIS-24" value="false" style="edgeStyle=orthogonalEdgeStyle;rounded=0;orthogonalLoop=1;jettySize=auto;html=1;" edge="1" parent="1" source="jNqRo3JuHXkXEJUHgoIS-11" target="jNqRo3JuHXkXEJUHgoIS-21">
          <mxGeometry relative="1" as="geometry" />
        </mxCell>
        <mxCell id="jNqRo3JuHXkXEJUHgoIS-11" value="su var?" style="rhombus;whiteSpace=wrap;html=1;" vertex="1" parent="1">
          <mxGeometry x="755" y="345" width="80" height="80" as="geometry" />
        </mxCell>
        <mxCell id="jNqRo3JuHXkXEJUHgoIS-20" style="edgeStyle=orthogonalEdgeStyle;rounded=0;orthogonalLoop=1;jettySize=auto;html=1;entryX=1;entryY=0.5;entryDx=0;entryDy=0;" edge="1" parent="1" source="jNqRo3JuHXkXEJUHgoIS-15" target="jNqRo3JuHXkXEJUHgoIS-2">
          <mxGeometry relative="1" as="geometry">
            <Array as="points">
              <mxPoint x="1120" y="675" />
            </Array>
          </mxGeometry>
        </mxCell>
        <mxCell id="jNqRo3JuHXkXEJUHgoIS-15" value="makaron hazirdir" style="shape=document;whiteSpace=wrap;html=1;boundedLbl=1;" vertex="1" parent="1">
          <mxGeometry x="1050" y="345" width="120" height="80" as="geometry" />
        </mxCell>
        <mxCell id="jNqRo3JuHXkXEJUHgoIS-17" value="true" style="edgeStyle=orthogonalEdgeStyle;rounded=0;orthogonalLoop=1;jettySize=auto;html=1;" edge="1" parent="1" source="jNqRo3JuHXkXEJUHgoIS-11" target="jNqRo3JuHXkXEJUHgoIS-16">
          <mxGeometry relative="1" as="geometry">
            <mxPoint x="1020" y="385" as="targetPoint" />
            <mxPoint x="835" y="385" as="sourcePoint" />
          </mxGeometry>
        </mxCell>
        <mxCell id="jNqRo3JuHXkXEJUHgoIS-16" value="makaron bishir" style="rounded=0;whiteSpace=wrap;html=1;" vertex="1" parent="1">
          <mxGeometry x="870" y="355" width="120" height="60" as="geometry" />
        </mxCell>
        <mxCell id="jNqRo3JuHXkXEJUHgoIS-23" style="edgeStyle=orthogonalEdgeStyle;rounded=0;orthogonalLoop=1;jettySize=auto;html=1;" edge="1" parent="1" source="jNqRo3JuHXkXEJUHgoIS-21" target="jNqRo3JuHXkXEJUHgoIS-16">
          <mxGeometry relative="1" as="geometry" />
        </mxCell>
        <mxCell id="jNqRo3JuHXkXEJUHgoIS-21" value="get su getir" style="rounded=0;whiteSpace=wrap;html=1;" vertex="1" parent="1">
          <mxGeometry x="735" y="560" width="120" height="60" as="geometry" />
        </mxCell>
        <mxCell id="jNqRo3JuHXkXEJUHgoIS-28" value="" style="edgeStyle=orthogonalEdgeStyle;rounded=0;orthogonalLoop=1;jettySize=auto;html=1;" edge="1" parent="1" source="jNqRo3JuHXkXEJUHgoIS-25" target="jNqRo3JuHXkXEJUHgoIS-27">
          <mxGeometry relative="1" as="geometry" />
        </mxCell>
        <mxCell id="jNqRo3JuHXkXEJUHgoIS-25" value="start" style="ellipse;whiteSpace=wrap;html=1;" vertex="1" parent="1">
          <mxGeometry x="1640" y="130" width="120" height="80" as="geometry" />
        </mxCell>
        <mxCell id="jNqRo3JuHXkXEJUHgoIS-26" value="end" style="ellipse;whiteSpace=wrap;html=1;" vertex="1" parent="1">
          <mxGeometry x="1640" y="590" width="120" height="80" as="geometry" />
        </mxCell>
        <mxCell id="jNqRo3JuHXkXEJUHgoIS-30" value="" style="edgeStyle=orthogonalEdgeStyle;rounded=0;orthogonalLoop=1;jettySize=auto;html=1;" edge="1" parent="1" source="jNqRo3JuHXkXEJUHgoIS-27" target="jNqRo3JuHXkXEJUHgoIS-29">
          <mxGeometry relative="1" as="geometry" />
        </mxCell>
        <mxCell id="jNqRo3JuHXkXEJUHgoIS-27" value="36" style="shape=parallelogram;perimeter=parallelogramPerimeter;whiteSpace=wrap;html=1;fixedSize=1;" vertex="1" parent="1">
          <mxGeometry x="1640" y="250" width="120" height="60" as="geometry" />
        </mxCell>
        <mxCell id="jNqRo3JuHXkXEJUHgoIS-32" value="true" style="edgeStyle=orthogonalEdgeStyle;rounded=0;orthogonalLoop=1;jettySize=auto;html=1;" edge="1" parent="1" source="jNqRo3JuHXkXEJUHgoIS-29">
          <mxGeometry relative="1" as="geometry">
            <mxPoint x="1870" y="395" as="targetPoint" />
          </mxGeometry>
        </mxCell>
        <mxCell id="jNqRo3JuHXkXEJUHgoIS-34" value="false" style="edgeStyle=orthogonalEdgeStyle;rounded=0;orthogonalLoop=1;jettySize=auto;html=1;" edge="1" parent="1" source="jNqRo3JuHXkXEJUHgoIS-29" target="jNqRo3JuHXkXEJUHgoIS-33">
          <mxGeometry relative="1" as="geometry" />
        </mxCell>
        <mxCell id="jNqRo3JuHXkXEJUHgoIS-29" value="36 % 2 == 0" style="rhombus;whiteSpace=wrap;html=1;" vertex="1" parent="1">
          <mxGeometry x="1640" y="355" width="120" height="80" as="geometry" />
        </mxCell>
        <mxCell id="jNqRo3JuHXkXEJUHgoIS-35" style="edgeStyle=orthogonalEdgeStyle;rounded=0;orthogonalLoop=1;jettySize=auto;html=1;entryX=0;entryY=0.5;entryDx=0;entryDy=0;" edge="1" parent="1" source="jNqRo3JuHXkXEJUHgoIS-33" target="jNqRo3JuHXkXEJUHgoIS-26">
          <mxGeometry relative="1" as="geometry">
            <Array as="points">
              <mxPoint x="1510" y="630" />
            </Array>
          </mxGeometry>
        </mxCell>
        <mxCell id="jNqRo3JuHXkXEJUHgoIS-33" value="cut deyil" style="shape=document;whiteSpace=wrap;html=1;boundedLbl=1;" vertex="1" parent="1">
          <mxGeometry x="1440" y="355" width="120" height="80" as="geometry" />
        </mxCell>
        <mxCell id="jNqRo3JuHXkXEJUHgoIS-39" value="" style="edgeStyle=orthogonalEdgeStyle;rounded=0;orthogonalLoop=1;jettySize=auto;html=1;" edge="1" parent="1" source="jNqRo3JuHXkXEJUHgoIS-37" target="jNqRo3JuHXkXEJUHgoIS-38">
          <mxGeometry relative="1" as="geometry" />
        </mxCell>
        <mxCell id="jNqRo3JuHXkXEJUHgoIS-37" value="36 + 5" style="rounded=0;whiteSpace=wrap;html=1;" vertex="1" parent="1">
          <mxGeometry x="1850" y="365" width="120" height="60" as="geometry" />
        </mxCell>
        <mxCell id="jNqRo3JuHXkXEJUHgoIS-38" value="41" style="shape=document;whiteSpace=wrap;html=1;boundedLbl=1;rounded=0;" vertex="1" parent="1">
          <mxGeometry x="2050" y="360" width="120" height="80" as="geometry" />
        </mxCell>
        <mxCell id="jNqRo3JuHXkXEJUHgoIS-42" style="edgeStyle=orthogonalEdgeStyle;rounded=0;orthogonalLoop=1;jettySize=auto;html=1;entryX=1.008;entryY=0.677;entryDx=0;entryDy=0;entryPerimeter=0;" edge="1" parent="1" source="jNqRo3JuHXkXEJUHgoIS-38" target="jNqRo3JuHXkXEJUHgoIS-26">
          <mxGeometry relative="1" as="geometry">
            <Array as="points">
              <mxPoint x="2100" y="644" />
            </Array>
          </mxGeometry>
        </mxCell>
        <mxCell id="jNqRo3JuHXkXEJUHgoIS-46" value="" style="edgeStyle=orthogonalEdgeStyle;rounded=0;orthogonalLoop=1;jettySize=auto;html=1;" edge="1" parent="1" source="jNqRo3JuHXkXEJUHgoIS-43" target="jNqRo3JuHXkXEJUHgoIS-45">
          <mxGeometry relative="1" as="geometry" />
        </mxCell>
        <mxCell id="jNqRo3JuHXkXEJUHgoIS-43" value="start" style="ellipse;whiteSpace=wrap;html=1;" vertex="1" parent="1">
          <mxGeometry x="2630" y="110" width="120" height="80" as="geometry" />
        </mxCell>
        <mxCell id="jNqRo3JuHXkXEJUHgoIS-44" value="end" style="ellipse;whiteSpace=wrap;html=1;" vertex="1" parent="1">
          <mxGeometry x="2630" y="660" width="120" height="80" as="geometry" />
        </mxCell>
        <mxCell id="jNqRo3JuHXkXEJUHgoIS-48" value="" style="edgeStyle=orthogonalEdgeStyle;rounded=0;orthogonalLoop=1;jettySize=auto;html=1;" edge="1" parent="1" source="jNqRo3JuHXkXEJUHgoIS-45" target="jNqRo3JuHXkXEJUHgoIS-47">
          <mxGeometry relative="1" as="geometry" />
        </mxCell>
        <mxCell id="jNqRo3JuHXkXEJUHgoIS-45" value="int n" style="shape=parallelogram;perimeter=parallelogramPerimeter;whiteSpace=wrap;html=1;fixedSize=1;" vertex="1" parent="1">
          <mxGeometry x="2630" y="230" width="120" height="60" as="geometry" />
        </mxCell>
        <mxCell id="jNqRo3JuHXkXEJUHgoIS-50" value="" style="edgeStyle=orthogonalEdgeStyle;rounded=0;orthogonalLoop=1;jettySize=auto;html=1;" edge="1" parent="1" source="jNqRo3JuHXkXEJUHgoIS-47" target="jNqRo3JuHXkXEJUHgoIS-49">
          <mxGeometry relative="1" as="geometry" />
        </mxCell>
        <mxCell id="jNqRo3JuHXkXEJUHgoIS-51" value="true" style="edgeLabel;html=1;align=center;verticalAlign=middle;resizable=0;points=[];" vertex="1" connectable="0" parent="jNqRo3JuHXkXEJUHgoIS-50">
          <mxGeometry x="-0.3882" y="-3" relative="1" as="geometry">
            <mxPoint as="offset" />
          </mxGeometry>
        </mxCell>
        <mxCell id="jNqRo3JuHXkXEJUHgoIS-56" value="false" style="edgeStyle=orthogonalEdgeStyle;rounded=0;orthogonalLoop=1;jettySize=auto;html=1;" edge="1" parent="1" source="jNqRo3JuHXkXEJUHgoIS-47" target="jNqRo3JuHXkXEJUHgoIS-55">
          <mxGeometry relative="1" as="geometry" />
        </mxCell>
        <mxCell id="jNqRo3JuHXkXEJUHgoIS-47" value="n % 15 == 0" style="rhombus;whiteSpace=wrap;html=1;" vertex="1" parent="1">
          <mxGeometry x="2630" y="345" width="130" height="95" as="geometry" />
        </mxCell>
        <mxCell id="jNqRo3JuHXkXEJUHgoIS-53" value="" style="edgeStyle=orthogonalEdgeStyle;rounded=0;orthogonalLoop=1;jettySize=auto;html=1;" edge="1" parent="1" source="jNqRo3JuHXkXEJUHgoIS-49" target="jNqRo3JuHXkXEJUHgoIS-52">
          <mxGeometry relative="1" as="geometry" />
        </mxCell>
        <mxCell id="jNqRo3JuHXkXEJUHgoIS-49" value="//n = n + 5;&lt;br&gt;n += 5;" style="rounded=0;whiteSpace=wrap;html=1;" vertex="1" parent="1">
          <mxGeometry x="2810" y="360" width="120" height="60" as="geometry" />
        </mxCell>
        <mxCell id="jNqRo3JuHXkXEJUHgoIS-54" style="edgeStyle=orthogonalEdgeStyle;rounded=0;orthogonalLoop=1;jettySize=auto;html=1;entryX=1;entryY=0.5;entryDx=0;entryDy=0;" edge="1" parent="1" source="jNqRo3JuHXkXEJUHgoIS-52" target="jNqRo3JuHXkXEJUHgoIS-44">
          <mxGeometry relative="1" as="geometry">
            <Array as="points">
              <mxPoint x="3080" y="700" />
            </Array>
          </mxGeometry>
        </mxCell>
        <mxCell id="jNqRo3JuHXkXEJUHgoIS-52" value="n" style="shape=document;whiteSpace=wrap;html=1;boundedLbl=1;rounded=0;" vertex="1" parent="1">
          <mxGeometry x="3010" y="350" width="120" height="80" as="geometry" />
        </mxCell>
        <mxCell id="jNqRo3JuHXkXEJUHgoIS-58" value="" style="edgeStyle=orthogonalEdgeStyle;rounded=0;orthogonalLoop=1;jettySize=auto;html=1;" edge="1" parent="1" source="jNqRo3JuHXkXEJUHgoIS-55" target="jNqRo3JuHXkXEJUHgoIS-57">
          <mxGeometry relative="1" as="geometry" />
        </mxCell>
        <mxCell id="jNqRo3JuHXkXEJUHgoIS-55" value="// n = n - 5;&lt;br&gt;n -= 5;" style="rounded=0;whiteSpace=wrap;html=1;" vertex="1" parent="1">
          <mxGeometry x="2450" y="360" width="120" height="60" as="geometry" />
        </mxCell>
        <mxCell id="jNqRo3JuHXkXEJUHgoIS-57" value="n" style="shape=document;whiteSpace=wrap;html=1;boundedLbl=1;rounded=0;" vertex="1" parent="1">
          <mxGeometry x="2280" y="355" width="120" height="80" as="geometry" />
        </mxCell>
        <mxCell id="jNqRo3JuHXkXEJUHgoIS-59" style="edgeStyle=orthogonalEdgeStyle;rounded=0;orthogonalLoop=1;jettySize=auto;html=1;entryX=-0.027;entryY=0.634;entryDx=0;entryDy=0;entryPerimeter=0;" edge="1" parent="1" source="jNqRo3JuHXkXEJUHgoIS-57" target="jNqRo3JuHXkXEJUHgoIS-44">
          <mxGeometry relative="1" as="geometry">
            <Array as="points">
              <mxPoint x="2360" y="711" />
            </Array>
          </mxGeometry>
        </mxCell>
      </root>
    </mxGraphModel>
  </diagram>
</mxfile>
